# xmcd
# 
# Track frame offsets:
#     150
#     9795
#     30737
#     44352
#     62162
#     83900
#     96352
#     111290
#     124922
#     138627
#     151227
#     172607
#     192237
#     208110
#     219575
#     244777
# 
# Disc length: 3794
# 
# Revision: 52
# Processed by: cddbd v1.5.2PL0 Copyright (c) Steve Scherf et al.
# Submitted via: fre:ac v1.0.31
# 
DISCID=da0ed010
DTITLE=Various Artist - Forrest Gump - The Soundtrack - CD2
DYEAR=1994
DGENRE=
TTITLE0=Jefferson Airplane - Volunteers
TTITLE1=The Youngbloods - Let's get together
TTITLE2=Scott McKenzie - San Francisco (Be sure to wear flowers in your hair)
TTITLE3=The Byrds - Turn! Turn! Turn! (To everything there is a season)
TTITLE4=The Fifth Dimension - Aquarius - Let the sunshine in
TTITLE5=Harry Nilsson - Everybody's talkin'
TTITLE6=Three Dog Night - Joy to the world
TTITLE7=The Supremes - Stoned love
TTITLE8=B. J. Thomas - Raindrops keep fallin' on my head
TTITLE9=Randy Newman - Mr. President (Have pity on the working man)
TTITLE10=Lynyrd Skynyrd - Sweet home Alabama
TTITLE11=The Doobie Brothers - It keeps you runnin'
TTITLE12=Gladys Knight and the Pips - I've got to use my imagination
TTITLE13=Willie Nelson - On the road again
TTITLE14=Bob Seger - Against the wind
TTITLE15=Alan Silvestri - Forrest Gump suite
EXTD=
EXTT0=
EXTT1=
EXTT2=
EXTT3=
EXTT4=
EXTT5=
EXTT6=
EXTT7=
EXTT8=
EXTT9=
EXTT10=
EXTT11=
EXTT12=
EXTT13=
EXTT14=
EXTT15=
PLAYORDER=
